<svg width="162" height="54" viewBox="0 0 162 54" fill="none" xmlns="http://www.w3.org/2000/svg">
<g clip-path="url(#clip0_274_144)">
<path d="M77.75 0H81.43V43.78H77.75V0ZM110.58 20.13C108.23 17.75 105.01 16.49 101.27 16.49C93.59 16.49 88.42 21.85 88.42 29.82V30.74C88.42 38.78 93.82 44.18 101.86 44.18C107.51 44.18 111.75 41.25 113.49 36.15L113.73 35.44H110.33L110.18 35.73C109.71 36.62 109.19 37.56 108.53 38.26C107.04 39.89 104.4 40.94 101.8 40.94C95.98 40.94 92 37.12 91.77 31.38H114.11V29.61C114.17 25.86 112.91 22.49 110.58 20.12M91.86 28.16C92.33 22.95 95.89 19.74 101.27 19.74C106.65 19.74 110.32 22.95 110.79 28.16H91.86ZM122.91 20.95V16.99H120.64V43.8H122.91V28.69C122.91 21.59 127.06 18.35 132.34 18.63L134.61 18.74V16.47L132.34 16.36C128.48 16.19 125.12 17.55 122.91 20.96M148.97 16.52C158.47 16.52 161.84 23.7 161.84 29.85V43.69H160.05V38.02L159.58 38.84C157.72 42.09 153.46 44.27 148.97 44.27C145.99 44.27 136.28 43.3 136.28 30.83V29.86C136.28 20.02 143.12 16.53 148.97 16.53M148.97 42.46C151.09 42.46 154.13 42 156.56 39.81C158.83 37.76 159.99 34.74 159.99 30.81V29.84C159.99 19.14 151.56 18.31 148.97 18.31C140.93 18.31 138.07 24.27 138.07 29.84V30.81C138.07 38.1 142.14 42.46 148.97 42.46ZM64.28 43.77H70.03V16.99H64.28V43.77ZM67.15 14.36C69.14 14.36 70.77 12.74 70.77 10.74C70.77 8.74 69.15 7.12 67.15 7.12C65.15 7.12 63.53 8.74 63.53 10.74C63.53 12.74 65.15 14.36 67.15 14.36ZM56.62 29.84C56.62 20.52 50.04 16.34 43.51 16.34C36.98 16.34 30.54 20.51 30.54 29.84V30.65C30.54 36.92 33.94 44.24 43.51 44.24C44 44.24 44.49 44.21 44.97 44.16C49.14 43.64 50.39 39.59 50.39 39.59V43.76H56.62V29.83M50.33 30.66C50.33 37.06 46.05 38.02 43.5 38.02C40.43 38.02 36.77 36.74 36.77 30.66V29.85C36.77 23.53 40.99 22.59 43.5 22.59C46.01 22.59 50.33 23.53 50.33 29.85V30.66ZM49.56 42.54C47.04 48.09 42.41 50.21 37.51 49.13C33.98 48.35 32.31 46.65 29.62 43.86L17.85 30.02C22.01 26.97 24.3 23.68 24.09 18.08L24.02 16.34H16.48L16.72 18.48C17.11 22.02 13.94 24.09 8.74 27.19C8.31 27.45 7.87 27.71 7.43 27.97V0.05H0V43.87H7.43V36.85C8.53 36 9.93 35.04 11.6 33.97L19.98 43.87C24.87 50.45 30.12 54.52 37.19 53.79C43.42 53.14 47.7 48.35 49.59 42.58C49.59 42.55 49.55 42.58 49.56 42.56" fill="white"/>
</g>
<defs>
<clipPath id="clip0_274_144">
<rect width="161.83" height="53.86" fill="white"/>
</clipPath>
</defs>
</svg>
